<svg width="75" height="75" viewBox="0 0 75 75" fill="none" xmlns="http://www.w3.org/2000/svg">
<path d="M31.6406 9.375C28.8465 9.38488 26.1696 10.4992 24.1938 12.475C22.218 14.4508 21.1036 17.1277 21.0938 19.9219C21.0938 21.7969 21.6258 23.5383 22.4859 25.05C18.2648 27.5203 14.9602 31.0266 13.1836 35.1562H12.8906C12.7358 35.1598 12.5818 35.1319 12.438 35.0742C12.2943 35.0166 12.1637 34.9304 12.0541 34.8209C11.9446 34.7113 11.8584 34.5807 11.8008 34.437C11.7431 34.2932 11.7152 34.1392 11.7188 33.9844C11.7188 33.5719 11.9297 33.2437 12.232 33.0328L9.52031 29.2242C8.75239 29.7582 8.12499 30.47 7.69159 31.2988C7.25818 32.1277 7.03163 33.049 7.03125 33.9844C7.03125 36.8672 9.18281 39.2297 11.9391 39.6984C11.8195 40.5187 11.7188 41.3367 11.7188 42.1875C11.7188 48.0281 14.8219 53.0906 19.3359 56.8359C18.7688 59.1797 19.0523 61.6781 20.8734 63.5016C22.2179 64.8345 24.0345 65.5824 25.9277 65.5824C27.821 65.5824 29.6376 64.8345 30.982 63.5016L31.8609 62.6227C33.6914 62.9602 35.5312 63.2812 37.5 63.2812C39.4688 63.2812 41.3086 62.9602 43.1391 62.6227L44.018 63.5016C45.3624 64.8345 47.179 65.5824 49.0723 65.5824C50.9655 65.5824 52.7821 64.8345 54.1266 63.5016C55.9102 61.7156 56.1773 59.2898 55.6641 56.9813C57.5435 55.4548 59.1527 53.623 60.4242 51.5625H65.625V32.8125H60.2789C59.4279 31.4311 58.4196 30.153 57.2742 29.0039L58.5938 21.7523V18.75H56.25C56.25 18.75 50.6203 18.8437 45.8484 22.4133C44.5955 22.0519 43.3242 21.7577 42.0398 21.532C42.1336 21.0117 42.1875 20.4703 42.1875 19.9219C42.1875 14.1258 37.4367 9.375 31.6406 9.375ZM31.6406 14.0625C34.8984 14.0625 37.5 16.6641 37.5 19.9219C37.5 20.325 37.4273 20.7094 37.3523 21.0938C33.5719 21.1125 30.0023 21.8438 26.7352 23.0719C26.1128 22.1392 25.7809 21.0431 25.7812 19.9219C25.7812 16.6641 28.3828 14.0625 31.6406 14.0625ZM53.3203 23.8781C53.3578 23.8687 53.3578 23.8852 53.393 23.8781L52.5141 29.2219L52.2961 30.4688L53.3203 31.3477C54.8853 32.703 56.1778 34.3439 57.1289 36.1828L57.7875 37.5H60.9375V46.875H57.7875L57.1289 48.1945C55.9852 50.4539 54.1805 52.4414 51.8555 54.1242L50.1703 55.3711L51.1969 57.2766C51.7547 58.2188 51.6539 59.3812 50.8289 60.2062C50.6064 60.4382 50.3394 60.6228 50.0437 60.7489C49.7481 60.875 49.43 60.94 49.1086 60.94C48.7872 60.94 48.4691 60.875 48.1735 60.7489C47.8778 60.6228 47.6107 60.4382 47.3883 60.2062L45.7031 58.5187L44.7516 57.6422L43.5047 57.9352C41.6016 58.3734 39.5789 58.5938 37.5 58.5938C35.4792 58.6011 33.4641 58.3802 31.493 57.9352L30.2508 57.6422L29.2969 58.5211L27.6117 60.2039C27.3892 60.4362 27.122 60.6211 26.8261 60.7474C26.5303 60.8737 26.2119 60.9389 25.8902 60.9389C25.5685 60.9389 25.2502 60.8737 24.9543 60.7474C24.6585 60.6211 24.3913 60.4362 24.1688 60.2039C23.783 59.8304 23.5365 59.3363 23.47 58.8035C23.4035 58.2706 23.521 57.7311 23.8031 57.2742L24.8297 55.3711L23.1445 54.1266C18.9047 51.0469 16.4062 46.8469 16.4062 42.1875C16.4062 33.4172 25.5703 25.7812 37.5 25.7812C40.3828 25.7812 43.1297 26.2125 45.6305 27.0258L46.875 27.4664L47.9016 26.5875C49.575 25.0945 51.6445 24.2906 53.3203 23.8781ZM51.5625 37.5C50.2734 37.5 49.2188 38.5547 49.2188 39.8438C49.2188 41.1328 50.2734 42.1875 51.5625 42.1875C52.8516 42.1875 53.9062 41.1328 53.9062 39.8438C53.9062 38.5547 52.8516 37.5 51.5625 37.5Z" fill="#699BF7"/>
</svg>
