<svg width="156" height="28" viewBox="0 0 156 28" fill="none" xmlns="http://www.w3.org/2000/svg">
<path d="M0.639081 5.3821H8.65471V27H14.1263V5.3821H22.1419V0.818181H0.639081V5.3821ZM29.5084 27.3707C32.4104 27.3707 34.2896 26.1051 35.2485 24.277H35.4019V27H40.5666V13.7557C40.5666 9.0767 36.6036 7.10795 32.2314 7.10795C27.5269 7.10795 24.4331 9.35795 23.6789 12.9375L28.7158 13.3466C29.0865 12.0426 30.2499 11.0838 32.2058 11.0838C34.0595 11.0838 35.1206 12.017 35.1206 13.6278V13.7045C35.1206 14.9702 33.7783 15.1364 30.3649 15.4688C26.4786 15.8267 22.9885 17.1307 22.9885 21.5156C22.9885 25.402 25.7627 27.3707 29.5084 27.3707ZM31.0681 23.6122C29.3933 23.6122 28.1916 22.8324 28.1916 21.3366C28.1916 19.8026 29.4573 19.0483 31.3749 18.7798C32.5638 18.6136 34.507 18.3324 35.159 17.8977V19.9815C35.159 22.0398 33.4587 23.6122 31.0681 23.6122ZM50.3429 7.36364H44.7179L50.3429 17.1818L44.5134 27H50.1384L53.948 20.2116L57.8216 27H63.3827L57.5404 17.1818L63.2293 7.36364H57.6426L53.948 14.2287L50.3429 7.36364ZM67.4637 27H72.9097V15.2131C72.9097 13.0398 74.2904 11.5952 76.1057 11.5952C77.8955 11.5952 79.0972 12.8224 79.0972 14.7528V27H84.377V15.0085C84.377 12.9759 85.5404 11.5952 87.5219 11.5952C89.2605 11.5952 90.5645 12.6818 90.5645 14.8679V27H95.9977V13.794C95.9977 9.53693 93.4665 7.10795 89.8102 7.10795C86.9338 7.10795 84.6966 8.57812 83.8912 10.8281H83.6867C83.0602 8.55256 81.0531 7.10795 78.3557 7.10795C75.7094 7.10795 73.7023 8.5142 72.8841 10.8281H72.654V7.36364H67.4637V27ZM106.899 27.3707C109.801 27.3707 111.68 26.1051 112.639 24.277H112.792V27H117.957V13.7557C117.957 9.0767 113.994 7.10795 109.622 7.10795C104.917 7.10795 101.824 9.35795 101.069 12.9375L106.106 13.3466C106.477 12.0426 107.641 11.0838 109.596 11.0838C111.45 11.0838 112.511 12.017 112.511 13.6278V13.7045C112.511 14.9702 111.169 15.1364 107.756 15.4688C103.869 15.8267 100.379 17.1307 100.379 21.5156C100.379 25.402 103.153 27.3707 106.899 27.3707ZM108.459 23.6122C106.784 23.6122 105.582 22.8324 105.582 21.3366C105.582 19.8026 106.848 19.0483 108.766 18.7798C109.954 18.6136 111.898 18.3324 112.55 17.8977V19.9815C112.55 22.0398 110.849 23.6122 108.459 23.6122ZM133.627 7.36364H129.932V2.65909H124.486V7.36364H121.802V11.4545H124.486V21.6818C124.461 25.5298 127.082 27.4347 131.032 27.2685C132.438 27.2173 133.435 26.9361 133.985 26.7571L133.128 22.7045C132.86 22.7557 132.285 22.8835 131.773 22.8835C130.687 22.8835 129.932 22.4744 129.932 20.9659V11.4545H133.627V7.36364ZM146.913 27.3835C151.77 27.3835 155.043 25.0185 155.81 21.375L150.773 21.0426C150.224 22.5384 148.817 23.3182 147.002 23.3182C144.279 23.3182 142.553 21.5156 142.553 18.5881V18.5753H155.925V17.0795C155.925 10.4062 151.886 7.10795 146.695 7.10795C140.917 7.10795 137.171 11.2116 137.171 17.2713C137.171 23.4972 140.866 27.3835 146.913 27.3835ZM142.553 15.2003C142.668 12.9631 144.368 11.1733 146.785 11.1733C149.15 11.1733 150.786 12.8608 150.799 15.2003H142.553Z" fill="#2D3436"/>
</svg>
